<?xml version="1.0" encoding="UTF-8"?>
<svg width="800" height="1000" viewBox="0 0 800 1000" xmlns="http://www.w3.org/2000/svg">
    <!-- Background -->
    <rect width="800" height="1000" fill="#ffffff"/>
    
    <!-- Header Section -->
    <rect x="50" y="50" width="700" height="120" fill="#2c3e50"/>
    <text x="400" y="120" font-family="Arial" font-size="24" fill="#ffffff" text-anchor="middle">JOHN DOE</text>
    <text x="400" y="150" font-family="Arial" font-size="16" fill="#b0b8c1" text-anchor="middle">Software Engineer</text>
    
    <!-- Contact Info -->
    <rect x="50" y="190" width="700" height="40" fill="#f8f9fa"/>
    <text x="400" y="215" font-family="Arial" font-size="12" fill="#2c3e50" text-anchor="middle">email@example.com • (555) 123-4567 • New York, NY</text>
    
    <!-- Section Headers -->
    <rect x="50" y="250" width="200" height="30" fill="#3498db"/>
    <text x="150" y="270" font-family="Arial" font-size="14" fill="#ffffff" text-anchor="middle">EXPERIENCE</text>
    
    <rect x="50" y="400" width="200" height="30" fill="#3498db"/>
    <text x="150" y="420" font-family="Arial" font-size="14" fill="#ffffff" text-anchor="middle">EDUCATION</text>
    
    <rect x="50" y="550" width="200" height="30" fill="#3498db"/>
    <text x="150" y="570" font-family="Arial" font-size="14" fill="#ffffff" text-anchor="middle">SKILLS</text>
    
    <!-- Content Lines -->
    <line x1="50" y1="300" x2="750" y2="300" stroke="#e9ecef" stroke-width="1"/>
    <line x1="50" y1="350" x2="750" y2="350" stroke="#e9ecef" stroke-width="1"/>
    
    <line x1="50" y1="450" x2="750" y2="450" stroke="#e9ecef" stroke-width="1"/>
    <line x1="50" y1="500" x2="750" y2="500" stroke="#e9ecef" stroke-width="1"/>
    
    <line x1="50" y1="600" x2="750" y2="600" stroke="#e9ecef" stroke-width="1"/>
    <line x1="50" y1="650" x2="750" y2="650" stroke="#e9ecef" stroke-width="1"/>
    
    <!-- Template Label -->
    <text x="400" y="950" font-family="Arial" font-size="16" fill="#2c3e50" text-anchor="middle">Professional Template</text>
</svg> 